# xmcd
#
# Track frame offsets:
#	150
#	21613
#	38132
#	56916
#	78527
#	106316
#	125775
#	138952
#	166975
#	178667
#	198269
#	212847
#	232798
#	248504
#
# Disc length: 3534 seconds
#
# Revision: 0
# Processed by: cddbd v1.5.2PL0 Copyright (c) Steve Scherf et al.
# Submitted via: EasyCDDAExtractor 15.3.0.1
#
DISCID=c20dcc0e
DTITLE=Rob Orlemans and Half Past Midnight - Highway Of Love
DYEAR=2013
DGENRE=Blues
TTITLE0=Monkey Tale
TTITLE1=Shotgun Shack
TTITLE2=It Was You
TTITLE3=Move On To The Light
TTITLE4=Don't Wanna Die
TTITLE5=Hear Me Calling
TTITLE6=Highway Of Love
TTITLE7=Night Bird
TTITLE8=Rumble In The Sky
TTITLE9=It's All Over Now
TTITLE10=Bony Moronie
TTITLE11=El Diablo's Dance
TTITLE12=That's The Way To Boogie
TTITLE13=Monkey Tale radio edit
EXTD=
EXTT0=
EXTT1=
EXTT2=
EXTT3=
EXTT4=
EXTT5=
EXTT6=
EXTT7=
EXTT8=
EXTT9=
EXTT10=
EXTT11=
EXTT12=
EXTT13=
PLAYORDER=
